<svg id="Layer_1" data-name="Layer 1" xmlns="http://www.w3.org/2000/svg" viewBox="0 0 50 50"><path d="M25,5.38C12.09,5.38,1.63,14.17,1.63,25a17.18,17.18,0,0,0,3,9.67C4,38.33,1.44,42.6.47,44.14a.31.31,0,0,0,.32.47c2-.38,7.53-1.38,13-2.4A27,27,0,0,0,25,44.62c12.91,0,23.37-8.79,23.37-19.62S37.91,5.38,25,5.38ZM13.06,28.72A3.72,3.72,0,1,1,16.79,25,3.72,3.72,0,0,1,13.06,28.72Zm12,0A3.72,3.72,0,1,1,28.79,25,3.72,3.72,0,0,1,25.06,28.72Zm12.21,0A3.72,3.72,0,1,1,41,25,3.72,3.72,0,0,1,37.27,28.72Z"/></svg>